<svg xmlns="http://www.w3.org/2000/svg" xml:space="preserve" viewBox="0 0 200 200">
  <circle cx="100" cy="100" r="100"/>
  <path fill="#1a1a1a" d="M135.7 171.3c0-3.9.8-5.8 2.3-5.8 1.5 0 2.1 1.6 1.8 5.2-.6 7.3-4 7.8-4 .6zm-23.6-7c-3-.7-7.6-8.6-10.9-18.8-1-3.4-2.6-6.1-3.4-6.1-.7 0-1.8-1.5-2.4-3.3-.6-1.8-2-3.3-3-3.3-3.4-.2-12-8.7-17-17.1A84.2 84.2 0 0 1 67.5 96 62.1 62.1 0 0 0 63 82.6c-.9-1.1-1.2-2-.7-2s-.1-2.7-1.5-6a30.3 30.3 0 0 1 2-23.6c1.2-2.4 1.7-4.8 1.1-5.4-.5-.5.2-1 1.6-1 1.4 0 3.1-1.6 3.7-3.5.7-2 2.5-5 4.2-6.9 2.7-2.8 3.1-3 3.1-.5 0 1.5-.8 2.8-1.8 2.8-1.1 0-1.3 1-.6 2.8a13 13 0 0 1 1 5.7c0 1.6.6 2.9 1.3 2.9.8 0 1.8 1.8 2.4 4 1.2 4.9 4.6 4 7.3-1.8 2-4.2 8-4.9 7.1-.8-.2 1.2.3 1.6 1.2 1 2-1.2 11.5 3.6 11.5 5.9 0 1 .7 1.2 1.6.7 2.3-1.4 8.2 2.1 8.2 5 0 1.3.9 3.7 1.9 5.4 2.4 3.8.7 8.4-3.5 9.5-5.1 1.3-3.9 3.3 1.6 2.5 6-1 6.4 1.5.8 4.5-2.2 1.2-4.1 3.4-4.2 4.8 0 1.4-.3 5.4-.7 8.8-.5 4.4 0 6.4 1.7 7 3.1 1.3 3 5.4 0 6.6-1.4.5-2.5 2.3-2.5 4 0 2.4 1.2 3.1 4.9 3.1 4 0 5 .8 5.2 3.7 0 2 .4 4.4.6 5.3l.6 4c.2 1.4 1.4-.2 2.8-3.6s3.2-6.1 3.9-6.1c.7 0 1-1.4.5-3.1-.5-1.7 0-4.6 1-6.5 1.5-2.7 1.4-3.2-.5-2.5-3 1.1-4.7-7.5-2.2-10.5 1-1.2 1.9-4.2 2-6.6 0-3.2.8-4.3 3.3-4.3 2.7 0 3.2 1 3.1 6.1 0 3.7.7 6.2 1.8 6.2s2.4 3 3 6.9c.8 5.9.4 7.4-2.7 10l-3.6 3 3.7-1c3-1 3.6-.6 3.1 2.1-.2 1.9-1 3.9-1.6 4.5-.6.6-.2 2.2.8 3.5 1.6 1.8 1.2 3-2 5.4-2.2 1.7-5.3 2.8-6.9 2.5-1.7-.4-2.8.2-2.8 1.6 0 1.3-1.1 2.3-2.5 2.3-1.3 0-2.4 1.2-2.4 2.7 0 2.4.5 2.3 3.6-.6 4.6-4.2 11-6.3 11-3.7 0 1 1.2 1.5 2.5 1 3.8-1.5 3 3.7-1.2 7.4l-3.7 3.3 4-2.6c5-3.1 8.1-1 7 4.7-1 5.7-7.9 9.8-12.7 7.6-2.4-1-4-1-4.3 0-.3.8-3 1.7-5.8 1.9-3 .2-5.3.9-5.3 1.6 0 1.3-2.3 1.3-7 0zm-29-84.5c0-1.3-.7-2.8-1.6-3.3-.9-.6-1.6.5-1.6 2.3 0 1.9.7 3.4 1.6 3.4.9 0 1.6-1 1.6-2.4zm-2.4-12.3c.5-1 .2-1.6-.7-1.6-1 0-1.8.7-1.8 1.6 0 .9.4 1.6.8 1.6s1.1-.7 1.7-1.6z"/>
  <path fill="#333" d="M136 170.4c0-3 .8-5 2.2-5 1.5 0 2 1.6 1.6 4.5-.8 6.1-3.9 6.6-3.9.5zm-30.1-14.1C98 138.5 95.4 134 91.4 132A53.2 53.2 0 0 1 75 115c-4.6-9-14.7-43.4-14.7-50.1 0-8.7 3.7-18.3 8.2-21.5 1.8-1.2 2.8-3 2.3-3.8-.5-.9.2-2.7 1.6-4 2.3-2.4 2.4-2.1 1.5 2.4-.6 3.3-.3 5 1 5s1.4.8 0 3.4c-1 1.9-1.4 3.8-.9 4.3.5.6 1 .1 1-1 0-1 .6-1.8 1.4-1.8 2.3 0 3.5 7 1.6 9.3-1 1.2-1.1 2.1-.2 2.1 2 0 7.8-6.5 9.1-10.2 1.3-3.5 6-3.8 6-.4 0 1.3 1.4 2.5 3 2.5 1.8 0 5.1 1.5 7.5 3.4 2.4 1.9 4.8 3 5.4 2.5 1.7-1.8 7.2 2.4 6.6 5.2-.3 1.5.6 3.6 2 4.6 2 1.5 2 2.6.4 6.1-1 2.4-3 4.3-4.3 4.3-1.3 0-2.9.8-3.5 1.7-.7 1.2 1 1.4 5.2.7l6.3-1-4.5 4.1c-3.6 3.3-4.7 6-5.3 13.2-.7 7.4-.4 9 1.6 9 1.4 0 2.5.7 2.5 1.5 0 2.3-4.3 5.2-5.7 3.8-.7-.6-.9.2-.3 1.8a19 19 0 0 1 1.1 4.5c0 .8 1.9 1.5 4.1 1.5 4.4 0 5 1 6.4 8.8.9 5.2 2.6 7.8 2.6 4 0-1.4 1.5-4.5 3.3-6.8 1.9-2.4 3-5 2.5-5.8-.5-.9-.2-3.5.7-5.9 1-2.8 1-4 0-3.3-2.7 1.7-5.3-7.3-3-10.2a9.1 9.1 0 0 0 1.7-6.1c-.3-2.2.6-4 2.2-4.7 4.1-1.6 5.6.3 4.5 5.8-.7 3.7-.3 5.4 1.7 6.5 3.6 2 3.8 15.8.3 17.1-3.7 1.4-3 3.7.8 2.7 3-.8 3.1-.4 1.7 3.4-1 2.7-1 4.6 0 5.2.8.5 1.5 1.6 1.5 2.4 0 1.9-9 6.7-10.2 5.5-1.2-1.2-7.7 5.4-7.7 7.8 0 1.1 1.6.5 3.6-1.3 4.6-4.1 9.4-6 9.4-3.6 0 1 1.5 1.4 3.3 1 4.3-1.2 4.1 1.7-.4 6.6-3.5 3.8-3.5 4-.2 2 1.9-1.2 4.5-1.8 5.9-1.2 3.9 1.4 1.6 9-3.6 11.7-3.8 2-5 2-9 0-5-2.6-9.7-3.2-5.8-.8 3.4 2.2 2 2.9-8.5 4.2l-9.3 1.1Zm-23-76c-1.2-4.4-2.2-6-2.6-4.2-.7 2.7 3 13 4.1 11.9.3-.3-.3-3.8-1.4-7.7Zm-1.4-13.7c0-2.7-2.6-3.2-4-.7-1.4 2.1.5 5.2 2.5 4 .8-.6 1.5-2 1.5-3.3Z"/>
  <path fill="#333" d="M135.4 173.7c0-1 .7-1.7 1.6-1.7 1 0 1.7.8 1.7 1.7 0 .9-.8 1.6-1.7 1.6-.9 0-1.6-.7-1.6-1.6zm1.1-4.4c-1.3-1.3.2-3.8 2.3-3.8.8 0 1.5 1 1.5 2.4 0 2.6-2 3.3-3.8 1.4zm-30.4-13.2c-7-15.7-11.1-22.5-14.7-24.3a46.9 46.9 0 0 1-16-16c-1.3-2.6-4-10.7-6-18-2-7.2-5-15.5-6.4-18.4-5.4-10.3-2.2-30.6 5.5-36 1.8-1.2 2.8-3 2.3-3.8-.5-.8-.2-1.5.6-1.5 2.2 0 3.6 6.7 2.5 11.5-1 4-1 4 1.8.7 2.2-2.5 2.6-2.6 2-.5-.5 1.5 0 3 1 3.4 1.5.5 1.4 1.4-.3 3.4-1.2 1.5-1.5 2.7-.6 2.7 2 0 7.8-6.5 9.1-10.2.6-1.6 2.2-2.8 3.6-2.8 1.8 0 2.4.9 1.8 2.8-.8 2.3 0 2.9 4 3 2.6.1 6.3 1.5 8 3 1.7 1.6 3.8 2.5 4.6 2 2-1.2 7.3 4.5 5.8 6-.6.7.2 2.1 1.8 3.3 2 1.5 2.6 3.2 1.8 5.7-.6 2-1.6 3.6-2.3 3.6-.7 0-2.6 1-4.4 2.4-3 2.4-2.7 2.5 3.4 1.5l6.5-1-5.3 4.4c-3 2.4-4.9 5-4.4 6 .6.8.1 2.6-1 3.9-1.3 1.6-1.4 2.4-.1 2.4 1 0 1.4 1.8.8 4.9-.8 3.8-.4 4.9 1.6 4.9 3.9 0 3.3 3.4-.7 4.4-2 .6-3 1.8-2.4 3.3.5 1.3.9 3.3.9 4.5 0 1.2 1.2 1.9 2.9 1.5 4.4-1.1 6.7 1.3 7.4 8 .9 7.9 2 9 3.5 3.2a19 19 0 0 1 3.4-7c1.2-1.4 2.2-4 2.1-5.7 0-1.8.4-4.5 1-6.1 1-2 .5-2.9-1.3-2.9-1.9 0-2.7-1.5-2.7-4.9 0-3.2.9-4.9 2.5-4.9 1.3 0 2.4.8 2.4 1.8s1.2 1.4 2.8.8c3.5-1.4 5.3 1.7 5.4 9 0 3.9-.9 6.4-2.4 7-3.8 1.4-3 4.1 1 3 3-.7 3.2-.5 1.4 2.9-1.4 2.6-1.4 4.1-.1 5.4 1 1 1.7 2.3 1.7 2.9 0 1.1-8 5.3-10.7 5.5-2.5.2-7.2 5.2-7.2 7.6 0 1.3 1.4.8 3.6-1.2 4.4-4 9.4-6 9.4-3.8 0 .9 1.5 1.6 3.3 1.6 4.2 0 4.1 1.3-.4 6.4-2 2.3-2.6 3.3-1.3 2.2 4.4-3.8 8.2-2.5 8.2 2.8 0 3.7-1 5.4-4.6 7.2-4 2.1-5.2 2.1-9.3 0-2.5-1.3-5.4-2-6.3-1.6-1.1.4-1 .7.2.8 1.2.1 2 .9 2 1.7 0 .9-2.5 1.4-5.6 1.1-3.2-.2-5.8.2-5.8 1 0 .7-1.7 1.3-3.9 1.3-3.1 0-4.7-1.7-7.4-7.8zm-10.3-52c-.6-.6-2-.6-3.2-.2-1.3.6-.9 1 1 1 1.7.1 2.7-.3 2.2-.8zm12.7-6.9c-.5-.5-1.8 0-3 1.1-1.5 1.6-1.3 1.8 1 1 1.6-.7 2.5-1.6 2-2.1zM88.8 97c.5-.8.3-2-.6-2.4-.8-.5-1.9.1-2.4 1.5-1 2.6 1.4 3.4 3 .9zm-6.3-18.3c-1.8-4.1-2.4-4.7-2.5-2.1-.2 4.2 3.8 13 4.4 9.8.3-1.2-.5-4.7-1.9-7.7Zm-1-12.1c0-2.7-2.6-3.2-4-.7-1.4 2.1.5 5.2 2.5 4 .8-.6 1.5-2 1.5-3.3Zm51 31.5c-3-4-3.4-7.5-1-9.5 2-1.6 2.8-1.6 4.4 0 1.4 1.5 1.4 2.4.2 2.8-1 .4-1.5 2.5-1 4.7.8 4.5 0 5.1-2.5 2z"/>
  <path fill="#4d4d4d" d="M135.4 173.7c0-1 .7-1.7 1.6-1.7 1 0 1.7.8 1.7 1.7 0 .9-.8 1.6-1.7 1.6-.9 0-1.6-.7-1.6-1.6zm1.6-5.8c0-1.3.8-2.4 1.7-2.4.9 0 1.6 1 1.6 2.4s-.7 2.5-1.6 2.5c-1 0-1.7-1.1-1.7-2.5zm-31-11.8c-7.1-16-11-22.5-14.9-24.4A44.7 44.7 0 0 1 76 116.3a26 26 0 0 0-2.1-5.5 92 92 0 0 1-4.5-13.1c-1.5-5.4-4.2-13.2-6-17.4-5.3-12.8-3.8-26.4 3.9-35.2 4.2-4.7 7.2-3.3 6.6 3.3-.3 2.8-.1 4.3.4 3.2.5-1.2 1.7-2 2.5-2 1 0 1.2.6.7 1.4-.5.8 0 1.8 1.1 2.2 1.6.5 1.6 1.3-.2 3.4-1.7 2-1.7 2.7-.1 2.7 2.3 0 5.9-4 8.1-9.4 2-4.9 7.2-5 5.6-.1-.8 2.8-.5 3.3 1.6 2.5 2.8-1.1 10.8 1.8 10.8 4 0 .6 2 1.4 4.4 1.7 3 .3 4.7 1.6 5 3.8.4 1.8 1.7 4 2.9 5 2.6 2 1.3 8.9-1.7 8.9-1.1 0-3 1.2-4.3 2.6-2 2.4-1.7 2.6 3 1.5 6.4-1.4 7.1 1 1.1 3.8-2.9 1.3-3.9 2.8-3.2 4.5.5 1.5.2 3.7-.9 5-1.3 1.6-1.3 2.2 0 2.2 1 0 1.8.6 1.8 1.4 0 .8-1.4 1.2-3 .7-1.7-.4-3.6 0-4.2 1-.7 1-.1 1.3 1.4.7 1.6-.6 3 .2 3.7 2.1.6 1.7 2.2 3.8 3.5 4.8 3.4 2.6-.3 4.6-6 3.2l-4.3-1 3.8 2.7c2.4 1.7 3.5 3.8 3 5.8-.7 2.5.1 3 4.7 3 4.7 0 5.6.7 5.8 3.7.1 2 .4 4.4.6 5.3l.7 5c.2 2.2 1 1.2 2.6-3.2 1.2-3.5 3-6.8 4-7.4 1-.6 1.7-2.9 1.6-5-.1-2.3 1-7 2.3-10.6 1.6-4.4 1.9-7.4.9-9.4-1-1.9-1-2.8.1-2.8 1 0 1.7 1 1.7 2.3 0 1.2.7 2.5 1.6 2.8.9.3 2.1 4 2.7 8.3.9 6.4.6 7.8-1.4 7.8a4 4 0 0 0-3.5 2.5c-.7 1.9 0 2.3 3.2 1.7 4-.7 4.1-.6 1.7 3-1.9 3-2 4.2-.5 5.7s1 2.7-2 5c-2.3 1.6-5 2.6-6.2 2.2-1.1-.5-2.6.3-3.1 1.8-.9 2.2-1.5 2.3-3.6.6-2.2-1.8-2.4-1.7-1.5.9a16 16 0 0 1 1.2 5.2c0 1.5 1.3 1 3.7-1.4 2.9-3 5-3.6 9.8-3 6.8.7 7.7 2.5 2.8 5.6-4.2 2.6-4.3 5.2-.1 3 5.2-2.9 6.7-2 6.3 3.3-.5 6.8-5.8 9.4-13.3 6.7-7-2.6-8.4-2.5-6.1.3 1.5 1.8 1 2.2-2.7 2.2a13 13 0 0 1-6.9-1.8c-1.9-1.5-2.1-1.3-1.2 1 .8 2.2.2 2.9-2.9 2.9-3 0-4.6-1.7-7.3-7.8zM74.6 98.9c-.5-1.5-.8-.3-.8 2.9 0 3.1.3 4.4.8 2.8.4-1.5.4-4.1 0-5.7zm20 5c-1.3-.5-3.5-1.7-4.8-2.7-2.2-1.6-2.2-1.5-.2 1 1.2 1.6 3.4 2.8 4.9 2.7 2.2 0 2.2-.3.2-1zM88.8 97c.5-.7-.2-2.8-1.5-4.5-2.1-2.9-2.2-2.8-1.3.9.8 3 .5 3.6-1.1 2.6-1.4-.9-1.8-.7-1 .5 1.4 2.3 3.7 2.5 4.9.5zm14.9-1.8c.5-1 .2-1.7-.8-1.7s-1.7.8-1.7 1.7c0 .9.3 1.6.7 1.6.4 0 1.2-.7 1.8-1.6zm-21-16.6c-2.1-4-2.7-4.6-2.7-2-.2 4.2 3.8 13 4.4 9.8.3-1.2-.5-4.7-1.9-7.7Zm-1.1-11.2c0-1.8-.7-3.3-1.5-3.3-2.2 0-3.8 3-2.6 5 1.7 2.7 4.1 1.7 4.1-1.7zm45.7 35.8c0-6.3 3.9-5.7 4.6.7.4 3-.2 4.3-2 4.3s-2.6-1.5-2.6-5zm3.3-12c0-3.5 2.6-4.5 4.8-2 1.4 1.8 1.2 2.5-.8 3.3-3.7 1.4-4 1.3-4-1.3z"/>
  <path fill="#666" d="M112.5 162.7c-2.4-.6-3.7-2.8-13.1-22.3-2.1-4.3-5.4-8.5-7.2-9.2-5.4-2-15.5-14-14.6-17.4.3-1.7-.4-6.3-1.7-10.4-1.5-4.8-2.4-6-2.5-3.6 0 4.3-3.3 3.3-3.3-1a83 83 0 0 0-4.9-15 72.7 72.7 0 0 1-4.9-17c-.1-11 8.3-27.2 11.5-22 .8 1.3 1 4 .4 6.1-.8 3.4-.5 3.7 2.5 2.8 4.2-1.3 4.3-1 1.1 5-1.3 2.5-1.9 5-1.4 5.4.6.5 1.3 0 1.7-1.1.4-1.1 1.5-2 2.3-2 .8 0 .6 1.3-.4 3a7 7 0 0 0-.6 6.1c.7 1.7 1.2 4.4 1 6a29 29 0 0 0 3.3 10.5c2.6 5.4 3 7.8 1.7 8.3-2.8 1 7.5 10.2 11.3 10.2 1.7 0 3.1-.9 3.1-1.9 0-1-1-1.4-2.3-.9-1.3.5-3 0-3.8-1-6.1-8.1-11.6-40.7-7.5-45.4 1.2-1.4 2.2-3.3 2.2-4.3s1.1-2.6 2.5-3.7c2-1.7 2.4-1.5 2.4 1.2 0 2.5 1 3.3 4.4 3.3 2.5 0 5.6 1.5 7.2 3.4 1.6 2 4.7 3.5 7 3.5 3.4 0 4.3.8 4.3 4 0 2 1 4.3 2.4 4.8 3.3 1.3 1.3 5.8-3.5 7.6-2 .8-3.8 2.6-3.8 4 0 2 .8 2 4.3.8 5.8-2.2 6.7-.8 1.6 2.5-2.2 1.5-4.3 4.3-4.6 6.3-.3 2.2-1.7 3.5-3.8 3.6-4 0-7.3 2-7.3 4.1 0 1 1.4.9 3.5-.2 3-1.6 3.3-1.5 2.5.7-.6 1.5-.3 2.7.6 2.7 2.5 0 8.3 6.5 7.2 8.1-.5.9-3.3 1.2-6.1.8-3-.5-4.2-.4-2.8.2 2.8 1.2 6.5 5.5 6.5 7.7 0 .8-1.8 1.2-4 .7-2.2-.4-3.7-.1-3.2.7.5.7 4.1 1.4 8.2 1.4 4.3 0 7.6.8 8 2a142 142 0 0 1 2.2 16.7c1.1 12.7 1.5 14.2 3 10.6 2.6-6.1 5.6-8 12.3-7.6l6 .3-5.1 5.3c-4 4-4.5 5.3-2.4 5.3 1.5 0 2.8-.6 2.8-1.4 0-2.2 5.2-3.8 6.8-2.2.8.8.8 3.3-.1 5.6-1.8 4.6-9.4 7.5-12.2 4.6-2.2-2.1-9.2-2.2-9.2 0 0 2.6-5.2 1.8-8.7-1.3-3.2-2.7-3.2-2.7-1.2 1 2.2 4.3 2 4.8-1.6 4ZM80 116c-1.6-1.6-1.8-1.5-1 .9.7 1.6 1.6 2.5 2 2 .6-.5 0-1.8-1-3zm3.6-5.3c-.5-1.4-1.2-2.5-1.6-2.5-.3 0-.6 1.1-.6 2.5 0 1.3.7 2.4 1.6 2.4.9 0 1.1-1 .6-2.4zM70.3 48.4c2-2.4 1.9-2.5-1.5-.7-3.8 2-4.7 3.5-2.2 3.5.8 0 2.4-1.3 3.7-2.8zm55.5 86c-.1-3.2.9-7.3 2.2-9 1.3-1.8 2.4-4.7 2.5-6.5 0-4.7 4.3-16 6.1-16.7 1-.3 2.1 1.8 2.7 4.6 1.6 8 1.3 9.2-2.3 10.2-3.8 1-4.4 4.4-.8 4.4 3.6 0 3 4.5-.8 6.5-1.9 1-2.9 2.6-2.3 3.5.7 1.2 1.6 1.1 2.8 0 2.1-2.2 4.4-2.4 4.4-.5 0 .8-1.8 2.2-4 3.3-2.4 1-4.2 1.2-4.2.3 0-2.6-4.6 0-5.4 3-.4 1.4-.8 0-1-3.1zm1.4-30c0-2.3.7-4.5 1.5-5 2-1.1 3.6 3.3 2.4 6.5-1.5 3.8-3.9 2.8-3.9-1.6zm3.3-14c0-1 1.1-1.7 2.5-1.7 1.3 0 2.4.8 2.4 1.7 0 .9-1.1 1.6-2.4 1.6-1.4 0-2.5-.7-2.5-1.6zm6.5 78.4c0-1 .8-1.7 1.8-1.7s1.2.8.7 1.7c-.6.9-1.3 1.6-1.7 1.6-.4 0-.8-.7-.8-1.6zm-25.5-6.2c-2-.3-4-1.8-4.4-3.3-4.8-15.3-11.6-28-15-28.1a60.2 60.2 0 0 1-15.5-15.1c0-.8.7-1 1.6-.5.9.6.5-2-.8-5.8a48.9 48.9 0 0 1-2.6-10.3c-.1-3-.3-3-1.4.7-1 3-1.5 3.4-2.2 1.6-12-32-13-38.8-7.7-49.7 1.9-4 4.5-7.6 5.8-8.1 2.4-.9 2.7-.2 3 6.3.2 2.2 1.2 3.1 3 2.8 3-.5 4 2 1.5 3.6-.8.5-1.9 2.5-2.4 4.5-.7 2.6-.4 3 1 1.6 1-1 3-1.8 4.4-1.8 2.1 0 2 .4-.3 2.2-3.2 2.4-3.8 6.8-1.2 8.4 1 .6 1.2 2.5.7 4.4-.7 2 .5 6.2 3.3 11.3 3.8 7 4 8 1.4 8-2.1 0-1.4 1.2 2.8 4.8 5.7 5 9.7 6.3 9.7 3.3 0-.9-.9-1.4-2-1.2-6.6 1.4-15.8-41.5-10-46.4 1.2-1 2.2-2.7 2.2-3.8 0-1.2 1.1-3 2.5-4.1 2-1.7 2.4-1.5 2.4 1.2 0 2.5 1 3.3 4.4 3.3 2.5 0 5.6 1.5 7.3 3.5 1.6 2 3.8 3.5 5 3.3 4.7-.6 6.2.3 6.2 4 0 2.2 1.1 4.4 2.5 4.9 2 .8 2.1 1.7.7 4.3-1 1.8-2.7 3.3-4 3.3-1.1 0-2.6 1.1-3.2 2.6-.8 2.2-.1 2.5 4.3 1.7l5.4-1-4.7 3.9c-2.6 2-4.3 4.6-3.7 5.5 1.4 2.2-3.3 5.8-6 4.7-2.5-1-6 1.7-6 4.4 0 1 .8.8 2-.3 2.7-2.8 5-2.4 3.9.6-.7 1.7-.1 2.3 1.9 2 1.5-.2 2.6.4 2.4 1.5-.2 1.1 1 2.8 2.9 3.8 5 2.6 2.1 5-4.7 4-5.7-1-5.8-1-2 1.2 2.3 1.2 4.4 3.6 4.7 5.2.5 2.5-.1 3-3.6 2.3-2.3-.5-3.8-.2-3.3.6.5.7 4.4 1.4 8.8 1.4h8l1 14.2c1.4 19.1 1.6 20 3.7 15 2.5-6 5.4-7.7 12.3-7.5l6 .1-5.2 5.6c-5.5 5.8-5.3 6 2.4 2 5.5-2.7 6.6-1.8 5.2 4-1.3 5.3-8.2 8.5-12.5 5.9-3.6-2.2-9.4-2.3-9.4-.1 0 2.6-5.2 1.8-8.7-1.3-3.2-2.7-3.2-2.7-1.2 1 2.3 4.4 2.1 4.7-2.6 4zm-26.7-50.1c0-.4-.8-1.2-1.7-1.7-.9-.6-1.6-.3-1.6.7s.7 1.7 1.6 1.7c1 0 1.7-.3 1.7-.7zm-15.5-63c.5-.9.2-1.6-.8-1.6s-1.7.7-1.7 1.6c0 1 .3 1.7.7 1.7.4 0 1.2-.8 1.8-1.7zm55.8 83.8c.4-3.4 1.7-7.3 3-8.7 1.3-1.5 2.4-4 2.4-5.8 0-3.5 3.3-13.3 5.7-17 1.3-2 1.8-1.5 2.7 2.4 2 9.1 1.5 11.9-1.9 12.8-3.8 1-4.4 4.4-.8 4.4 1.4 0 2.5 1.1 2.5 2.5a4 4 0 0 1-2.5 3.4 4 4 0 0 0-2.4 3.7c0 2.3.3 2.3 2.3-.3 1.5-2 2.6-2.4 3.4-1.1.6 1-.2 2.8-1.9 4.1-3.8 2.9-5.4 3-5.5.3 0-1-1.5-.3-3.1 1.7-4.2 5-4.7 4.7-4-2.4zm2.1-29c0-4.3 2.5-6.8 4.1-4.2 1.3 2.2-.5 8.2-2.5 8.2-.9 0-1.6-1.8-1.6-4zm3.3-14c0-.8 1.1-1.6 2.5-1.6 1.3 0 2.4.8 2.4 1.7 0 .9-1.1 1.6-2.4 1.6-1.4 0-2.5-.7-2.5-1.6zm6.5 78.5c0-1 .8-1.7 1.8-1.7s1.2.8.7 1.7c-.6.9-1.3 1.6-1.7 1.6-.4 0-.8-.7-.8-1.6zm-27.3-6.4a47 47 0 0 1-7-15.2c0-2.7-8.7-16-10.6-16-.9 0-4.8-3-8.7-6.6-4.6-4.3-6.7-7.5-6.2-9.4.5-1.5-.2-6.5-1.4-11s-2.3-6.5-2.4-4.5c0 4.5-3.3 5-3.3.5a23 23 0 0 0-1.5-7l-5-12.1a36.3 36.3 0 0 1-.7-28.3c4-10 12.7-12.8 9.6-3.3-.8 2.6-.3 3.3 2.4 3.3 4 0 4 .4 1 6.4-2.4 4.6-2.4 4.6 1.4 2.8 2.1-1 5.8-5 8.1-8.9 4-6.6 8.6-8.4 6.4-2.4-.8 2-.4 2.4 1.8 1.6 3-1.2 9 1.3 11.6 5 1 1.2 2.5 2.1 3.3 2 3.8-.8 5.7.2 5.7 3.2 0 1.8 1 3.8 2.4 4.5 3.2 1.9 1.3 8.7-2.4 8.7a4.5 4.5 0 0 0-4 2.5c-.8 2.2 0 2.4 4.4 1.6l5.3-1-4.7 4c-2.6 2.1-4.3 4.7-3.7 5.6 1.4 2.2-3.3 5.8-6.2 4.7-1.3-.5-3.3.2-4.5 1.7-1.9 2.2-1.6 2.4 1.8 1.3 3.2-1 3.7-.7 2.9 1.5-.8 2-.3 2.6 1.8 2.2 1.5-.2 2.6.4 2.4 1.5-.2 1.1 1 2.8 2.9 3.8 5 2.6 2.1 5-4.7 4-5.7-1-5.8-1-2 1.2 5 2.7 6.3 7.3 2.2 8.3-1.6.4.5.9 4.7 1l7.6.2 1 14.2c1.5 18.8 1.7 20 3.4 16 2.6-6.5 7.6-10.6 10.7-9 1.6 1 4 1.2 5.5.6 4.1-1.6 3 1.2-2.6 6.2-5.4 4.8-4.6 6.4 1 2.1 6.6-5 10.3-.3 5.2 6.6-2.5 3.4-10 5-11.6 2.5-.6-1-2.9-1.7-5.1-1.7-2.3 0-3.7.7-3.2 1.5 2.1 3.4-4.8 3.3-8.7-.2-2.4-2-3.4-2.6-2.2-1.3 1 1.3 2 3.1 2 4.2 0 2-3.9 2.5-6 .9zm-16-59.2c-3.6-1.7-6.5-8.8-9.3-22.2-1-4.8-2.4-8.6-3.2-8.6-.8 0-.7-1.4.2-3.2 2.6-4.8 2-6.4-1.7-5.4-2.6.7-3.1 1.7-2.2 4.3a40 40 0 0 1 1.3 8.5c.1 2.8 1 6.1 2 7.4 3.7 5 5.5 11 3.5 11.7-2.5.8 7 9.3 10.3 9.2 1.6 0 1.3-.6-.9-1.7zM69.3 49.5c.5-.9.2-1.6-.8-1.6s-1.7.7-1.7 1.6c0 1 .3 1.7.7 1.7.4 0 1.2-.8 1.8-1.7zm55.6 84.8c.9-7.3 2.3-11.3 4-11.3 1 0 1.6-1.6 1.6-3.7 0-4 3.2-13.6 5.7-17.5 1.3-2 1.8-1.5 2.7 2.4 2 9.1 1.5 11.9-1.9 12.8-3.8 1-4.4 4.4-.7 4.4 1.5 0 2.4 1.1 2.1 2.8-.3 1.6.1 3.9.9 5 1.7 2.9-3.7 7-7.6 5.9-1.7-.5-3.2.2-3.8 1.7-1.7 4.4-3.7 2.8-3-2.5zm10-5c-.5-1.4-1-1-1 1 0 1.7.3 2.6.9 2 .5-.5.6-1.9 0-3zm-7.4-25c.3-2.3 1.3-4.2 2.2-4.2 2.4 0 2 7-.5 7.9-1.6.5-2-.6-1.7-3.6zm4-11.8c-1.8-1.9-1-3.8 1.5-3.8 1.3 0 2.4.7 2.4 1.6 0 2-2.5 3.5-3.9 2.2zm4.7 81.2c.6-1 1.4-1.7 1.8-1.7.3 0 .7.8.7 1.7 0 .9-.8 1.6-1.8 1.6s-1.2-.7-.7-1.6zm.8-5.7c0-1.4.8-2.5 1.7-2.5.9 0 1.6.7 1.6 1.5 0 .9-.7 2-1.6 2.6-1 .5-1.7-.2-1.7-1.6zm-31-11.7a44 44 0 0 1-3.3-9.6c0-3.1-9.6-15.5-12-15.5-3.8 0-14.5-13-13.6-16.5.5-1.7.2-2.7-.6-2.3-.7.5-2.2-.6-3.1-2.4-1.2-2.2-1.3-3.3-.1-3.3 1 0 1.6-2.4 1.5-5.3l-.2-5.3-1.2 4.9c-1.3 5.2-1.5 5-5.1-7.4-1.2-4-3.5-10.3-5-13.9-1.7-3.6-3-9.8-3-14 0-8.8 6-21.6 10.4-22.5 2.7-.5 3 .2 2.1 4.5-.9 4.3-.5 5 2.1 5 3.7 0 5.8 2.7 3.4 4.2-2.5 1.5-2 3.5.8 3.5 1.3 0 2.4-1 2.4-2.2 0-1.2.7-2.1 1.6-2.1.9 0 2-1.9 2.6-4.1.6-2.3 1.7-4.1 2.5-4.1 3.5 0 3.9.3 3.4 2.8-.4 1.8.3 2.2 2.1 1.5 2.9-1 9 1.4 11 4.5.6 1 2.1 1.9 3.3 2 5.5.4 6.2.8 6.2 3.8 0 1.8 1 3.8 2.4 4.5 2.8 1.6 1.5 8.7-1.6 8.7-1.1 0-3 1.2-4.3 2.6-2 2.4-1.7 2.6 3 1.5 6.4-1.4 7.1 1 1.2 3.8-3 1.4-4 2.7-3.2 5 .6 2 0 3.4-2 4.2-2.7 1-2.6 1.3.4 2.5 3.1 1.3 3.1 1.4-.3 1.5-2 0-4.1 1-4.8 2-.8 1.3-.3 1.6 1.7.8s3.1-.2 3.7 2c.5 1.8 1.9 3.6 3.2 4.1 4.7 1.8.3 4.4-5.7 3.4-5.7-1-5.8-1-2 1.2 5 2.7 6.3 7.3 2.2 8.3-1.6.4.5.9 4.6 1l7.6.2 1.1 10.2c.6 5.6 1.6 11.9 2 14l1 3.7 4.3-4c3-2.8 5.2-3.6 7.5-2.8 1.8.7 4.2 1 5.3.5 3.3-1.2 2.4 2.6-1.2 4.9-4.2 2.6-4.3 5.2-.1 3 1.7-1 4-1.8 5-1.8 2 0 1.6 9.6-.5 11-3 1.7-10.7 2.2-11.7.5-1.3-2-7.4-2.3-7.4-.2 0 2.6-5.2 3.5-7.9 1.4-2.1-1.7-2.3-1.6-1.4.8.8 2.2.2 2.9-3 2.9-3 0-4.6-1.6-7.2-7.6zm-13-53.4c-2.5-1.2-4.2-3.5-4.3-5.8-.1-2-1-4.5-2-5.5-1.1-1-2-3.6-2-5.8 0-2-.8-5.4-1.8-7.3-1-2-1.8-6-1.7-9 .1-3.8-.5-5.3-2.4-5.3-2 0-2.3 1-1.4 3.7.7 2 1.3 6 1.4 8.7.1 2.8 1 6.1 2 7.4 3.5 4.7 5.6 11.3 3.6 11.3-1 0 .2 2.2 2.8 4.9 2.6 2.6 5.9 4.8 7.3 4.8 1.5 0 .9-.8-1.6-2Zm10.6-7.6c.5-1 .2-1.7-.8-1.7s-1.7.8-1.7 1.7c0 .9.3 1.6.7 1.6.4 0 1.2-.7 1.8-1.6zm21.6 44.7c-2.8-2.8.4-17 4-17 .7 0 1.3-1.7 1.3-3.8 0-4.9 4.8-19 6.5-19 1.3 0 3.3 8 3.3 13.2 0 1.7-1 3-2.3 3-1.2 0-2.7 1.2-3.2 2.5-.6 1.7.1 2.5 2.3 2.5 3.4 0 4.3 2.4 1.5 4.1-1.2.7-1 1.8.2 3.5 2.5 3 0 5.8-5.4 6.4l-4.8.6c-.6 0-1.4 1.3-1.7 2.7-.2 1.4-1 2-1.7 1.3zm2-36.6c0-3.4.7-5 2-4.5 1.2.4 2.1 2.4 2.1 4.5s-.9 4.1-2 4.5c-1.4.5-2-1-2-4.5zm3.3-12c0-1.5 1.2-2.7 2.6-2.7 1.4 0 2.3.9 2 2-1 3-4.6 3.5-4.6.6z"/>
  <path fill="#999" d="M106.3 155.1c-2-4-3.6-8-3.6-9 0-3.2-8.3-14.7-11.3-15.7-5.7-1.8-13.4-11.7-14-18.2-1.3-11-1.8-13.6-3-14.7-.6-.7-1 .2-1 1.9 0 4.5-2.4 1-5-7.4-1.3-4-3.2-9.2-4.4-11.4a42 42 0 0 1-3-9.4c-1.2-6 2.3-23 4.1-20.1.8 1.3 1.8 1.1 3.3-.7 1.7-2 1.7-2.5 0-2.5-1.2 0-1.8-.4-1.3-.9 2-2 5.8 1.3 5 4.4-.7 2.9-.3 3.2 2.6 2.3 4-1.3 4.4.2 1 4.7a11.8 11.8 0 0 0-2.4 5.6c0 1.8.8 1.7 3.5-.8 3.5-3 3.5-3 1.4.4a7.3 7.3 0 0 0-.8 6.5c.7 1.7 1.2 4.4 1 6a28 28 0 0 0 3.2 10.6c2.3 5 2.9 7.8 1.7 8.2-2.5.9-2.3 3.6.4 3.6 1.1 0 3.7 1.8 5.6 4 3.7 4.3 8.5 4.1 8.5-.3 0-1.9-.5-2-2.2-.6-1.7 1.4-2.7 1.3-4.1-.4-1-1.3-1.8-3-1.6-3.7.3-.8-.8-3.7-2.3-6.5-3.7-7-6.3-31.7-3.7-35 1.1-1.3 2.5-3.7 3-5.3.6-1.5 1.9-2.8 2.9-2.8s1.4 1 1 2.4c-.8 1.8 0 2.5 2.9 2.5 5.6 0 9 1.6 9 4.2 0 1.6 2 2.3 6 2.3 5.3 0 5.7.3 4.8 4-.7 3-.2 4 2.3 4.7 4.2 1 2.6 5.7-2.7 7.7-2 .8-3.8 2.6-3.8 4 0 2 .8 2 4.3.8 5.8-2.2 6.7-.8 1.6 2.5-2.2 1.5-4.3 4.3-4.6 6.3-.3 2.2-1.7 3.5-3.8 3.6-3.8 0-7.3 2-7.3 4 0 .7 1.6 1 3.6.5 3-.6 3.2-.5 1.3 1-2 1.4-1.9 1.7 1.2 1.7 2 0 3.7 1 3.7 2.3 0 1.3 1.1 2.7 2.5 3.3 4.4 1.7.8 4.2-4.5 3.1-3.6-.7-4.7-.4-3.9.9.6 1 2.1 1.9 3.3 1.9 2 0 4.2 3.3 4.2 6 0 .5-1.8.6-4 .1-2.2-.4-3.7-.1-3.2.7.5.7 4.1 1.4 8.1 1.4 4.6 0 7.3.7 7.5 2 0 1.1.5 3.5.8 5.3a359 359 0 0 1 2 14.7c1.1 10.2 1.5 11 3 7.3 2.6-6.1 5.6-8 12.3-7.6l6 .3-5.1 5.3c-5.3 5.5-3.3 7.7 2.3 2.6 4.1-3.7 7-1 4.8 4.7-1.7 4.4-8.1 7.1-10.7 4.5-2-2-10.7-2-10.7 0 0 2.7-5.2 2-8.7-1.2-3.1-2.7-3.2-2.7-1.3.8 1.7 3.2 1.5 3.7-1.1 3.7-2 0-4.3-2.5-6.6-7.1zm-23.2-36c0-.3-1-1.5-2.5-2.6-2-1.8-2.3-1.7-1.4.6.9 2.3 4 3.9 4 2Zm1.7-7.4c0-.9-.8-2-1.7-2.6-.9-.5-1.6.2-1.6 1.6 0 1.4.7 2.5 1.6 2.5 1 0 1.7-.7 1.7-1.5zm40.8 20.6c0-2 1-5.2 2.4-7a13 13 0 0 0 2.5-6.3c0-4.2 5-17.2 6.6-17.2 1.1 0 3.2 8 3.2 12.3 0 1-1.5 2.4-3.3 2.9-1.8.4-3.2 2-3.2 3.4 0 1.6.9 2.2 2.4 1.6 4.5-1.7 2.5 3-3.6 8.6-3.3 3-6.2 5.5-6.5 5.5-.3 0-.5-1.7-.5-3.8zm6.5 2.6c0-1.2 5.4-5.2 7-5.3 2.7-.1 1 2.5-2.9 4.3-2.2 1-4 1.5-4 1Zm-4-29.6c-1.4-4.6.7-8.2 2.7-4.5 1 1.6.9 3.7 0 5.3-1.4 2.4-1.7 2.4-2.7-.8zm3.2-15c.6-.8 1.7-1.6 2.6-1.6.8 0 1.5.8 1.5 1.7 0 .9-1.1 1.6-2.5 1.6s-2.1-.7-1.6-1.6z"/>
  <path fill="#b3b3b3" d="M108.5 158a62 62 0 0 1-5-10.9c-3-8-9.9-17.5-12.9-17.5-2.8 0-6.4-4.3-7-8.4-.2-1.8-1.7-5.1-3.2-7.4a32 32 0 0 1-3.8-11c-.7-5.4-1.5-6.6-3.9-6.2-1.8.3-2.5-.2-1.9-1.2.6-1 .4-1.8-.5-1.8-.8 0-3.5-6-5.9-13.4C60.5 68.1 60.3 66 62 58.8c1.2-4.8 2.4-7.2 3.2-6 .8 1.4 2 .8 4-1.9 1.6-2.2 2.6-2.8 2.4-1.4-.6 5.1.2 6.2 3.8 5.4 2.1-.4 3-.2 1.9.6-3.8 2.8-7.7 13.5-4.2 11.3 2-1.2 5.1 6.4 5.1 12.2 0 2.6.6 4.8 1.3 4.8 2 0 5.2 9.7 3.5 10.7-.8.5-1.5 2-1.5 3.4 0 1.3.6 2 1.4 1.6.8-.5 3.1 1 5.2 3.2 2 2.2 4.7 4 6 4 1.1 0 2.1.7 2.1 1.5s2 3.8 4.2 6.5c3.6 4.2 5.4 5 11.5 5 5.7 0 7.2.6 7.3 3 0 1.5.3 4.2.6 6 3 21.7 3 21.7 0 23.3-1.9 1.1-2.2 2-1 2.8 2.2 1.3 6-2 7.4-6.5a9.4 9.4 0 0 1 11.6-6l4.3 1.2-4.2 3.6c-6 5.4-5 7.8 1.6 3.7 3.1-2 5.8-3 5.9-2.2.5 3.5-.7 8-2.4 9.1-1.8 1.2-18.9.3-27-1.4-3.1-.6-3.6-.2-2.7 2.6 1.5 4.7-1.5 4.1-4.8-.9zm-25.2-49.2c-1.6-2.7-1.7-2.7-1.7.5-.1 3.8 2 6.7 2.8 4 .3-.8-.2-2.9-1.1-4.5zm42.3 24c0-1.8 1-3.8 2.4-4.2 1.2-.5 1.9-2 1.4-3.3-.5-1.2-.2-2.3.5-2.4l5.1-.6c5.2-.5 4.6 1-2.9 7.9-5.7 5.3-6.5 5.6-6.5 2.6zm6-14.2c-1.1-1.8 4-16.8 5.8-16.8.7 0 1.3 1.3 1.3 2.8 0 1.6.5 4.5 1 6.6.7 2.6.1 4-2 4.7a10 10 0 0 0-4.1 2.7c-.7 1-1.4 1-2 0zm-29.8-4.5c-5-5-5.4-13-.7-15.6 2.7-1.4 3-1.2 2.2 1-.9 2.1-.4 2.4 2.5 1.5 2.5-.8 3.5-.4 3.5 1.4 0 1.4 1.2 3.2 2.6 4 4 2.2-.1 4.1-4.1 2-4.2-2.3-5-2.2-5 .5 0 1.3 1.4 2.7 3.2 3.2 1.8.4 3.3 2 3.3 3.4 0 3.8-2.8 3.2-7.5-1.4zm27-10c0-2.3.7-3.7 1.6-3.2.8.5 1 2.4.6 4.2-1.2 4.5-2.1 4-2.1-1zm-37.1-3.4c-1.1-.5-1.6-1.5-1-2.4.4-.9 0-2.5-1-3.7A72.5 72.5 0 0 1 83.2 67a37 37 0 0 1 2.9-13c3-6.5 5-8 4.7-3.4-.1 1.8 1 3 3 3 8 .5 9 .9 9 3.2 0 1.3 1 2.5 2 2.7l3.8.6 3.7.6c1.5.1 1.6 1 .4 3.2-1.3 2.5-1 3.3 1.6 4 4.5 1.1 2.6 5.1-4.3 9.4-3 1.9-5.5 3.6-5.5 3.8 0 1.1 7.5.5 10-.8 2-1 3-1 3 0 0 .9-1.4 2-3.2 2.6-2 .6-3.3 2.5-3.3 4.8 0 4.2-3.6 6.5-6 4-1-1-3 .5-5.6 4.2-4 6-4.2 6-7.6 4.7Zm15.9 56.2a38.1 38.1 0 0 1-4.3-9.4c-1.7-6.5-8.5-16.3-12.5-17.8-4-1.6-11.8-10-9.2-10 1 0 1.3-.7.7-1.6-.6-1-1.6-1.3-2.2-1-.6.5-1.3-.5-1.4-2-1.3-13.8-2.7-18.4-5.3-17.7-2.3.5-3.9-2.3-8.2-14.8-5.1-14.8-5.3-16-3.3-24.5 1.4-6.5 2.4-8.4 3.5-6.8 1.2 1.9 2 1.7 4-1 1.8-2.2 2.5-2.5 2.2-.8-.6 5 .2 6.2 3.5 5.4l3.4-1-3.4 5.6c-3.7 6-4.3 8.8-1.8 7.2 2-1.3 5 6 5 12.3 0 2.7.5 4.8 1.2 4.8 2.4 0 5.4 10.4 3.4 11.6-2 1.3 7.8 11.2 11.3 11.2 1 0 2 .7 2 1.4a12 12 0 0 0 2.5 4.5c2.5 3 2.5 3 .9-.4-2.8-5.7-2.1-11.6 1.5-13.6 2.6-1.3 3.2-1.3 2.9.4-.3 1.2.8 1.9 2.4 1.6 1.7-.3 2.9.5 2.9 2 0 1.3 1.2 3 2.6 3.9 4 2.2-.1 4.1-4.1 2-2.3-1.2-3.6-1.2-4.3 0-.6 1 .4 2.2 2.3 2.7 2 .5 3.5 2.2 3.5 4 0 2.6-.8 3-3.5 2.1-2.3-.7-3.1-.5-2.4.7.7 1 4.4 1.9 8.4 1.9 5.8 0 7.3.5 7.4 2.8 0 1.6.3 4.3.6 6.1 3 21.7 3 21.7 0 23.3-1.9 1-2.2 2-1 2.7 1 .7 1.9.4 1.9-.5 0-1 1.1-1.8 2.5-1.8 1.3 0 2.4-1.3 2.4-3 0-5 5.3-8.6 11.3-7.4l5.2 1-4.2 4.4c-5.7 6-5.2 7.6 1.3 3.5 6.3-3.8 7.5-3.4 6.4 2.5-.9 4.6-6.3 7.5-10.2 5.6-3-1.6-22.9-3-22.9-1.7 0 .6 1 1.9 2 3 1.5 1.5 1.3 2-.8 2-1.6 0-4.3-2.5-6.1-5.4zm-24.3-47.4c-1.3-1.3-1.8-1.2-1.8.7 0 3.2 2.2 5.4 3 3 .4-1-.2-2.7-1.2-3.7zm42.3 23.3c0-1.8 1-3.8 2.4-4.2 1.2-.5 1.9-2 1.4-3.3-.5-1.2 0-2.3 1.1-2.3 1.2 0 1.6-1 1-2.7-1.2-3 3.7-18.5 5.9-18.5.7 0 1.3 1 1.3 2.2 0 1.3.4 4.6 1 7.4.9 4.4.6 5-2.5 5-2.4 0-3.4 1.1-3.4 3.5s.7 3.2 2.4 2.5c4.3-1.6 2.7 1.6-4 7.8-5.8 5.3-6.6 5.6-6.6 2.6zm6.5 1.7c0-1 .8-1.7 1.8-1.7s1.2.8.7 1.7c-.6.9-1.3 1.6-1.7 1.6-.4 0-.8-.7-.8-1.6zm-3.6-30c-.4-2.4-.2-4.3.5-4.3 2.4 0 3.3 3.1 1.8 5.9-1.2 2.2-1.6 2-2.3-1.7zm-38-4.5c-.7-1-.7-2.1-.2-2.7.5-.5.2-1.8-.7-3a74.3 74.3 0 0 1-6.5-27.6c0-4 1.3-9.8 2.9-13 3.1-6.2 5-7.5 4.7-3-.1 1.7.7 2.7 2.1 2.4 4.2-1 10 1.3 10 3.8 0 1.6 1.6 2.4 4.6 2.4 5.8 0 7 1.3 5 5.1-1.3 2.5-1 3 1.7 3 5 0 4.4 6.3-.7 8.3-2.3.8-4.1 2.3-4.1 3.3s-1 1.2-2 .6c-1.7-1-1.7-.7-.1 1 1.5 1.7 2.9 1.7 6.1.3 2.3-1 4.1-1.2 4.1-.4 0 .8-1.4 2-3.2 2.5-2 .6-3.3 2.5-3.3 4.8 0 4-3.5 6.5-6 4.2-.7-.8-3.2 1-5.4 4.1-4.2 5.7-7.2 7-9 4Zm41.6-9.6c0-1 .8-1.7 1.7-1.7.9 0 1.6.8 1.6 1.7 0 .9-.7 1.6-1.6 1.6-1 0-1.7-.7-1.7-1.6ZM106.3 155c-2-4-3.6-8-3.6-9 0-3.2-8.3-14.7-11.3-15.7C87.1 129 79.1 120 78.7 116c-.9-10.5-2.7-19.1-4-19.1-.7 0-1.4 1.2-1.4 2.7 0 4.2-1.2 2-5.8-10.2C60.1 69.6 59.7 67.5 62 58c1.4-6.1 2.4-8.1 3.4-6.6 1.1 1.9 1.8 1.7 3.8-1 2.4-3.1 2.5-3.1 2.5 1.1 0 3.6.7 4.2 3.4 3.5 3.3-.9 3.3-.8-.3 5.3-3 5.1-3.2 6-1 5.2 2.2-.8 3 .4 3.8 6.7a65 65 0 0 0 4.3 15c2.2 4.7 2.7 7.4 1.5 7.8-2.5.9-2.3 3.6.3 3.6 1.1 0 3.4 1.9 5.1 4.2 1.8 2.3 4.1 3.7 5.3 3.3 1.2-.5 2.2.1 2.2 1.2 0 1.2 1.1 3.6 2.5 5.3 2.5 3 2.5 3 .9-.4-1-2-1.8-5.5-1.8-8 0-3.5-.4-4-2.2-2.5-1.7 1.4-2.7 1.3-4.1-.4-1-1.3-1.8-3-1.6-3.7.1-.8-1-4.3-2.5-7.7-1.6-3.5-3.3-12-4-18.8-1-10.9-.7-13.2 2.2-17.7 3.3-5.4 6.8-7.4 5.1-3-.7 1.8.2 2.5 3 2.5 5.5 0 9 1.6 9 4.1 0 1.3 2.3 2.4 5.3 2.7 4.5.4 5.3 1.2 5 4.2-.3 2.3.5 3.7 2 3.7 4 0 2.9 6.4-1.4 8-2.1.9-4.4 2.8-5 4.3-1 2.9-.2 2.9 8 0 2.5-.9 2.2-.2-1.2 2.7-2.5 2.2-4.5 5.2-4.5 6.7 0 2.6-1.7 3.5-5.9 3-1-.1-3.1 1.3-4.9 3.3-3 3.4-3 3.4.8 2.2 2.7-.8 3.5-.6 2.8.6-.7 1.1.2 1.9 2.2 1.9 1.9 0 3.4 1 3.4 2.2 0 1.3 1.2 2.8 2.7 3.3 2 .8 2.2 1.6 1 2.8-1.2 1.2-2.7 1.2-5 0-2.5-1.3-3.7-1.3-4.5 0-.6.9.4 2 2.3 2.6 2 .5 3.5 2.2 3.5 4.1 0 2.5-.8 3-3.3 2.4-1.8-.4-2.9-.1-2.4.7.6.8 4.2 1.5 8.2 1.5 5.8 0 7.3.5 7.4 2.8 0 1.6.4 4.5.8 6.5l1.4 7.4c.4 2 .7 6.4.8 9.8.1 6 3.4 9 3.4 3.1 0-5 5.3-8.6 11.3-7.4l5.2 1-4.5 4.7c-4.8 5-2.2 6.7 3 2 3.8-3.4 6.5-1.2 5.1 4.1-1 4.3-8 7.7-10.9 5.3-1-.8-6.4-1.7-11.9-2-9.2-.5-10-.3-8.5 2.3 1.2 2.2.9 2.8-1.5 2.8-2 0-4.3-2.5-6.6-7.1zm-23.2-36c0-.5-.7-1.2-1.6-1.8-.9-.6-1.6-.2-1.6.7 0 1 .7 1.8 1.6 1.8.9 0 1.6-.4 1.6-.8zm1.7-7.4c0-.9-.8-2-1.7-2.6-.9-.5-1.6.2-1.6 1.6 0 1.4.7 2.5 1.6 2.5 1 0 1.7-.7 1.7-1.5zm34 47.8c1.1-.5 2.6-.4 3 .1.6.5-.3 1-2 .9-2-.1-2.3-.5-1-1zm6.8-26.7c0-1.9 1-3.8 2.4-4.2 1.2-.5 2-2 1.5-3.1-.5-1.2 0-2.6 1-3.2.9-.6 1.3-1.8.7-2.7-1.2-2 4-17.8 6-17.8.8 0 1.5 1 1.5 2.2 0 1.3.4 4.6 1 7.4.9 4.4.6 5-2.5 5-2.4 0-3.4 1.1-3.4 3.5s.7 3.2 2.4 2.5c4.2-1.6 2.8 1.6-3.4 7.8-6.9 6.9-7.2 7-7.2 2.6zm6.5 1.7c0-1 .8-1.7 1.8-1.7s1.2.8.7 1.7c-.6.9-1.3 1.6-1.7 1.6-.4 0-.8-.7-.8-1.6zm5-3.3c0-1 .7-1.6 1.6-1.6.9 0 1.6.7 1.6 1.6 0 .9-.7 1.6-1.6 1.6-1 0-1.7-.7-1.7-1.6zm-8.7-26.2c-1.3-4.8.4-7.7 2.4-4.2.9 1.5.9 3.7 0 5.3-1.2 2.2-1.6 2-2.4-1.1zm3-14.6c.5-1 1.6-1.7 2.5-1.7.8 0 1.5.8 1.5 1.7 0 .9-1.1 1.6-2.5 1.6s-2.1-.7-1.6-1.6z"/>
  <path fill="#f9f9f9" d="M108.7 156.6c-1.5-2.2-2-4.4-1.2-5 .8-.4 2.2 1.4 3.2 4 2 6 1.4 6.3-2 1zm27.7 1c-.5-.8.4-2.6 1.9-3.9 5-4.2 6.6-4.7 6.2-1.8-.5 3.4-6.8 7.8-8 5.7zm-21.5-3.2c-1-.6-2.3-2.4-2.8-4-1.2-3.3-6-4-6.2-.8 0 3-5.1-10.5-5.4-14.6-.1-2-.6-3.3-1-3-.5.2-3-.9-5.7-2.4-6-3.3-10.4-11.2-7.4-13.1 1.5-1 1.5-2 .2-4.6-2.5-4.6-2.3-6.8.6-6.8 1.4 0 2.5.7 2.5 1.6 0 .9 1.4 1.6 3.2 1.6 2 0 3.6 1.5 4.3 4.1.5 2.3 1.7 4 2.6 4 1 0 1.2 1.2.7 2.5-.7 2 .5 2.3 7.8 1.5l8.7-1 1.3 10.4c1.8 13.6 2 21 .6 21-.7 0-1.5 1-1.8 2.4-.2 1.3-1.3 1.9-2.2 1.2zm-12-18.7c-1.6-1.6-1.8-1.5-.9.9.6 1.6 1.6 2.5 2 2 .6-.5 0-1.8-1-3zm21.5 18.9c1.6-.4 2.8-1.8 2.8-3.1 0-2.2 5.6-8.9 7.4-8.9 1.4 0 .9 4.2-1.2 8.7-1.6 3.4-3.2 4.3-7 4.2-2.7-.1-3.6-.5-2-1zm8.3-28.9c0-1.2 1-2.1 2.1-2.1 1.6 0 1.7.5.4 2.1-1 1.2-2 2.2-2.2 2.2-.2 0-.3-1-.3-2.2zm-.6-9c0-.9.8-2.1 1.7-2.7 1-.5 1.3-1.5 1-2.1-.4-.7.3-3 1.5-5.2 2.2-4 2.3-3.9 2.3 3.1 0 4-.4 6.7-1 6.2-.6-.6-2-.3-3.3.7-1.5 1.2-2.2 1.3-2.2 0Zm-29.4-2.7c-2.2-2.6-1.6-3 2.4-1.4 1.4.5 2.5 1.6 2.5 2.4 0 2.3-2.6 1.8-4.9-1zM78 107.4c-.6-8.8-1.3-10.9-5-14.2-9.4-8.5-14.8-33.4-8-37 4.4-2.4 8.1 2 5.5 6.4-1.6 2.4-1.2 3.7 2.1 7.3a15 15 0 0 1 4 9c0 2.5.9 5 2 5.3 1.3.5 1.8 4.4 1.5 12.7-.4 11.3-1.6 17.5-2 10.5zm21.6-1.7c-.1-4.5.3-5 3.8-4.3 5.5 1 7 5.3 1.9 5.3-2.2 0-4.3 1-4.7 2-.5 1.2-1-.2-1-3Zm-7-7c1.8-1 1.7-1.8-.4-4-6-5.9-9.7-34.7-5.1-38.5 1.3-1.1 4.7-1.8 7.6-1.5 4.1.4 5.9 1.7 7.9 5.8 2.5 5.2 8 7.8 6 2.9-.4-1.3-.1-2.4.7-2.4 2.5 0 2 3.7-1.2 8.2-2.6 3.8-2.6 3.9.1 1.7 2.5-2 3.2-2 4.4 0 1 1.6 0 3.1-3.4 5.3-4.8 3-6.4 6-3.1 6 1 0 1.3.8.7 1.7-.6 1-.2 2.7.8 4 1.2 1.5 1.3 2.5.1 3.2-1 .6-1.7.4-1.7-.5 0-2.4-4.6-3.6-6-1.6-.6 1.1-.3 1.4.9.7 1-.6 1.8-.4 1.8.5 0 1-1.4 2.7-3.2 3.8-1.8 1.1-3.3 3-3.3 4.1 0 1.1-1.3 2-2.9 2-2.1 0-2.3-.3-.7-1.4zm15 56.6c-1.8-3-3.2-6.4-3.3-7.8 0-3.8-9.5-18-12-18-2.6 0-6.4-4.1-7-7.6-.1-1.3-1.6-4-3.2-6s-2-2.6-.6-1.5c4 3.6 5.2 2.3 4-4.4-1-6.8.5-8.5 4-4.2 1.2 1.3 3 2 4.4 1.4 1.3-.5 2.3 0 2.3 1.1 0 1 1.5 4 3.2 6.5 1.8 2.5 2.8 5 2.3 5.4-.5.6 2.7.6 7.2.1 5-.5 8.6-.2 9.2 1 1.8 2.8 2.7 29.5 1 29.5-.8 0-1.7 1.6-2 3.7-.6 3.5-.7 3.4-3.8-1.3-1.8-2.7-4.3-5-5.5-5.4-1.8-.3-2 0-.5 1.7 2.1 2.6 5.5 11 4.4 11-.5 0-2.3-2.3-4-5.2zm27.1 2.2c-.9-1.4 7-8.3 9.5-8.3 1.4 0 1.2 3.7-.2 5.9-1.8 2.6-8.1 4.3-9.3 2.4zm-11.2-3c1-.8 2.7-3.4 3.6-5.8 1.9-4.9 6.9-7.9 8-4.7.3 1 1.3 1.5 2 1 .9-.5 1.6-.3 1.6.4s-1.5 2.3-3.3 3.4c-1.8 1.1-3.3 3.1-3.3 4.5 0 1.6-1.6 2.4-5.3 2.4-3 0-4.4-.6-3.3-1.3zm8-29c-.6-1.7.2-2.5 2.5-2.5 2.9 0 3.1.4 1.4 2.5a10.6 10.6 0 0 1-2.5 2.4c-.2 0-.8-1-1.4-2.4zm-28.4-11.1a14.7 14.7 0 0 1-3.8-12.3c.2-2.9 6-1 10.3 3.3l3.3 3.3-5-1.1c-5.5-1.3-9.2 2-3.8 3.4 3.5 1 5.9 4.9 3.7 6.2-.7.5-2.8-.8-4.7-2.8zm29.1 1.9c0-1.3 1.4-4.8 3-7.8l3-5.6.8 5.1c.4 2.8.1 6-.6 7.2-.7 1.2-1.3 1.5-1.3.7s-1.2-.5-2.5.6c-2 1.6-2.4 1.6-2.4-.2zm-54.4-9.6c-.6-2.3-1.2-5.4-1.2-7 0-3.2-3.6-7.7-6.2-7.7-2.3 0-8.5-19.8-8.5-27.4 0-7.6 3.5-11 8.6-8.3 2.3 1.2 2.5 2.2 1.1 4.8-2 3.7-.8 8.8 1.6 7.3 2-1.2 3.4 3 3.4 9.8 0 3.1.6 5.6 1.3 5.6.7 0 2 2.2 3.1 5 1 2.6 1.2 4.8.4 4.8-.7 0-1.6 3.9-1.9 8.6-.3 6.7-.7 7.7-1.7 4.5zm51.2-4.2c0-2 .5-2.3 1-1 .5 1.2.4 2.6-.1 3.1-.6.6-1-.4-.9-2.1zm-36.3-1.6-.4-3.2c-.1-.9-1.5-4-3.1-7-3.6-6.5-5.6-29.3-3.1-34 1.3-2.6 3.1-3.2 7.8-2.9 5.8.5 7.8 1.3 8.2 3.6 1.5 7.3 5.5 11.7 5.5 6 0-1.3 1.1-2.4 2.5-2.4 2.8 0 3.3 2.5.8 4-2.5 1.6-2 4.1 1 4.1 1.3 0 2 .8 1.5 1.7-.6.9 0 1.6 1 1.6 1.3 0-.1 1.2-3 2.6-6.5 3.3-8.3 7.1-3.3 7.3 3.3.1 3.4.2.5 1.4-2.2.8-2.6 1.6-1.3 2.4 3.3 2 2.4 6.2-1.1 5.1-2.3-.7-4.5.7-8.2 5.2-2.8 3.4-5.1 5.4-5.3 4.5Zm14.5 54.6c-1.5-2.7-2.8-6-2.8-7.3 0-3.6-9.9-18.6-12.2-18.6-2.5 0-6.3-4.3-6.8-7.7-.2-1.3-1.7-4-3.4-6-2.7-3.1-2.7-3.2 0-1.2 4 3.1 5.1 1.3 3-4.7-1.5-4.3-1.3-5.3 1-6.1 1.4-.6 3-.2 3.3.9.4 1 2 1.9 3.8 1.9 1.7 0 3.1 1 3.1 2.2 0 1.2 1.8 4.2 4 6.5 3.2 3.5 5.5 4.4 11.3 4.4h7.3l1.2 14.1c.8 9.9.6 15.1-.8 17.2-1 1.7-1.4 3.8-1 4.7 2.3 3.5-2.5 1.2-5-2.4a13.8 13.8 0 0 0-5.3-5c-2.3-.8-2.3-.6.2 1.4 3 2.3 5.5 10.8 3.2 10.8-.6 0-2.5-2.3-4-5zm26 1.6c-1.6-1-4.8-1.4-7-1-3.6.7-5.6-1.1-2.5-2.3.8-.3 2.4-2.8 3.7-5.4 2.5-5.3 7.2-7.2 10.2-4.3 1.3 1.3.8 2.5-1.9 4.3-3.6 2.6-4.9 7.3-2 7.3 1 0 1.7-.7 1.7-1.5 0-.7 1.3-1.8 2.9-2.4a67 67 0 0 0 4.9-2c1.3-.6 2 .4 2 2.5 0 2.2-1.5 4-4.2 5-5 2-4 2-7.8-.2zm-1.7-30.4c-2-2-1-3.3 3-4 2.3-.5 4.2-.4 4.2.2 0 1.6-6.1 5-7.2 3.8zm-27.4-10.3c-3-1.8-7.2-12.6-5.5-14.3 1.5-1.5 10.6-1.5 9.7 0-.4.6.6 2.3 2 3.8 2.7 2.7 2.6 2.8-2.3 1.7-4-1-5.3-.6-5.3 1.2 0 1.3 1.5 2.8 3.3 3.3 1.8.4 3.3 2 3.3 3.4 0 3-1.3 3.2-5.2 1zm28.8-2 2-7.3c1.2-5 3.7-4.7 4 .4l.4 6c.1 1-1.6 2.4-3.7 3.2-3.5 1.3-3.7 1.1-2.7-2.2zm-55-5.4c-.7-.7-1.3-3.7-1.3-6.8 0-5.3-3-10.2-6.2-10.2-2.2 0-8.5-19.6-8.5-26.5 0-7.1 1.4-11.4 3.4-10.2.8.5 1.5.1 1.5-.8 0-1 1.5-.4 3.4 1.3 2.8 2.7 3.1 3.8 1.6 6.7-2 3.5-1 7.3 1.5 5.8 1.6-1 3.3 3 3.3 8.2 0 2.1 1.6 6.5 3.4 9.7 2.5 4.2 3 6.4 1.8 7.9-1 1.1-2 5.2-2.2 9.1-.3 3.9-1.1 6.5-1.8 5.8zm51.2-5.6c0-2.2.4-3.1.9-2 .4 1.1.4 3 0 4-.5 1.2-.9.3-.9-2zM92.7 101l-.5-3.3c-.1-.9-1.5-4-3.1-7-3.1-6-6.2-32.7-3.9-34.1.8-.5 2-2.5 2.8-4.4 1.1-2.6 1.5-2.8 1.6-.7 0 1.9 1.4 2.7 4.7 2.6 6.3-.2 8 1 9.3 6.9 1 5 4 6.8 4 2.4 0-1.3 1.2-2.4 2.5-2.4 1.8 0 2.2 1 1.5 4-.9 3.5-.5 4.1 2.8 4.2 2.1.1 3 .5 1.8 1-1.1.5-1.7 1.4-1.2 2.1.4.8-1.4 2.2-4 3.3-6.4 2.7-7.9 6.6-2.4 6.6 2.4 0 3.7.7 3.1 1.6-.6 1-1.7 1.3-2.5.8-.9-.5-1.6-.2-1.6.7 0 .9.8 2 1.7 2.6 2.6 1.6 0 4.4-3 3.3-1.8-.7-4.4 1-8 5.2-3 3.4-5.5 5.4-5.6 4.6Zm14.4 53.5c-9.2-19-12-23.7-15.7-25.5a23 23 0 0 1-7.7-9c-2.3-4.4-2.8-6.3-1.3-5 3.4 2.7 4.2 1.3 2.6-4.3-.8-2.7-1-6.1-.4-7.7 1-2.7 1.2-2.7 3.4.4 1.3 1.8 3.7 3.3 5.3 3.3 1.6 0 2.9 1 2.9 2.2 0 1.2 1.8 4.2 4 6.5 3.2 3.4 5.5 4.4 11.2 4.4h7.2l1 10c1.6 14.8 1.3 22.6-.7 22.6-1 0-1.4 1.1-.9 2.5.8 2 .1 2.2-3.5 1.4-4-1-4.2-.9-2.2 1.6 2 2.3 2 2.7 0 2.7-1.3 0-3.6-2.8-5.2-6.1zm24.6 2.7a8.7 8.7 0 0 0-6.1-.7c-4 1.2-4.7-3.2-.8-4.7 1.3-.5 2.4-2 2.4-3.2 0-3.6 5.5-7.7 8.2-6 1.2.8 2.9 1 3.6.6 2.4-1.4 1.4.5-2.7 5.2-4.2 4.9-4 9 .2 4.8a26 26 0 0 1 5.6-4.1c2.7-1.5 3.1-1.1 3.1 3.3 0 2.7-.5 5-1.2 5l-5.3.8c-2.3.4-5.4-.1-7-1zm-5-26c.5-1.7 1.7-3 2.8-2.8 1 .2 1.6-.9 1.4-2.3-.3-1.7 1-3 3.7-3.5 5.6-1 5.1.3-2.3 6.5-5.1 4.2-6.2 4.6-5.5 2.1zm-22-14.2c-2.6-1-6.9-9.2-6.9-13.3 0-1.8 1.1-3.6 2.5-4.1 1.3-.6 2.4-.2 2.4.8s1.4 1.4 3 1c2-.5 3.5.5 4.7 3 1.8 3.8 0 7.2-2 4-1.4-2.5-5.7-2-5.7.5 0 1.3 1.5 2.7 3.3 3.2 1.8.4 3.3 2 3.3 3.4 0 2.7-1 3-4.6 1.5zm27.5-.2a55 55 0 0 1 5.4-14.4c1-1 1.3.8 1.8 10.2 0 1.5-1.6 3.3-3.6 4-2 .8-3.7.9-3.6.2zm-54.6-8c-.5-.6-1-3.7-1-7 0-4.7-.8-6.4-3.8-7.8-4.9-2.2-9.4-14.1-10.5-27.2-.6-8-.2-10.1 2.1-11.8 2-1.5 3.7-1.6 6-.4 1.6.9 3.7 1.1 4.7.6.9-.6.1 1.4-1.7 4.4L70.1 65l3.4 2.6a11 11 0 0 1 3.8 8.2c.1 3 1.6 8 3.1 11 2.2 4 2.5 6 1.2 7.5-1 1.2-1.4 4.8-1 8 .7 5.6-.7 8.8-3 6.5zm51.6-4.6c0-2.7.4-3.6.8-2s.4 3.8 0 5c-.5 1-.8-.3-.8-3zm-37-4.9c-.7-1.8-2.1-5-3.3-7.3-4.3-8-6.4-33.4-3-36.1 1.1-1 2.1-2.9 2.1-4 0-1.2.7-2.6 1.5-3.1s1 .7.6 2.6c-.8 3-.4 3.4 2.8 2.5 5.5-1.4 9.4 1.3 10.7 7.4 1 4.6 1.4 4.9 3.2 2.4 3.1-4.3 6.3-3.5 5 1.3-.8 3.5-.4 4.1 2.7 4.2 2 .1 2.8.5 1.7 1-1.1.5-1.7 1.5-1.2 2.2.5.8-.6 1.9-2.4 2.4-1.8.6-3.3 1.8-3.3 2.7 0 .9-.7 1.2-1.5.7s-2 .3-2.5 1.8c-.8 2.2 0 2.5 5 1.7 5.3-1 5.6-.8 2.9 1.2-1.7 1.3-3.6 2-4.3 1.5-.7-.4-1.3 0-1.3.9s.8 2 1.7 2.6c2.6 1.6 0 4.4-3 3.3-1.8-.7-4.3 1-7.9 5.2-4.7 5.6-5.3 6-6.3 3Zm17.2 59.4c-1.9-2-4.2-6.3-5-9.5-2.4-8-8.8-18-13.2-20.2-2-1-5.3-5-7.3-8.6-3.5-6.6-3.5-6.7-.3-5.9 2.3.6 3 .3 2.1-1-1.3-2.2-2.5-13.3-1.5-13.3a16 16 0 0 1 4.2 3.2c2 1.8 4.5 3.3 5.7 3.3 1.1 0 2.1 1 2.1 2.2 0 1.2 1.8 4.2 4 6.5 3.2 3.5 5.5 4.4 11.2 4.4h7.2l1.2 10.2c.6 5.6 1.5 12 2 14.4.5 2.6-.1 5.2-1.8 6.8-1.7 1.7-2 3-.9 3.7 1.7 1 4.3-1.4 10-9.5 2.2-3 3.9-3.7 8-3.1l5.2.7-4.3 4c-6 5.6-5.2 8 1.5 3.8l5.7-3.5v4.8c0 2.7-1 5.2-2 5.7-2.2.8-16 .1-26.4-1.3-5.7-.8-6.2-.6-4.3 1.6 3.4 4.1.7 4.7-3 .6zm16.5-27c.3-1.6 1.7-3 3-3s2.4-1.4 2.4-3c0-2.2 1.3-3.3 3.7-3.5 4.8-.3 4.6.8-.8 5.8-6.9 6.4-9 7.4-8.3 3.8zm6.3-14.6c0-3.5 4.6-16.2 5.5-15 .3.2 1 3.3 1.6 6.7 1 5 .6 6.3-1.8 7.2a10 10 0 0 0-4.1 2.8c-.7 1-1.2.3-1.2-1.7zm-30.4-3.3c-4.9-5.3-5.3-12.8-.7-15.3 2.7-1.4 3-1.2 2.1 1-.8 2.3-.3 2.6 2.5 1.9 2.4-.6 3.6-.2 3.6 1.3 0 1.2 1.2 2.9 2.6 3.7 4 2.2-.1 4.1-4.1 2-4.2-2.3-5-2.2-5 .5 0 1.3 1.4 2.7 3.2 3.2 1.8.4 3.3 2 3.3 3.4 0 3.9-3 3.2-7.5-1.7zm-24.2-4.7c-.5-1.5-1-4.8-1-7.4 0-3.2-1.3-5.6-3.9-7.3-5-3.3-10.8-19.2-10.8-29.8 0-7 .6-8.6 4.3-11 2.3-1.5 3.8-2 3.3-1.2-1.3 2.1 3.5 4 6 2.5 1.4-.8 1.5-.5 0 1.2-3.8 5-4 9.5-.6 13a8.1 8.1 0 0 1 2.6 7.7c-.5 2.8.2 5.5 2 7.5s2.6 5.3 2.3 9.8c-.8 15.1-2.2 20.1-4.2 15Zm51.6-4.9c0-2.7.4-3.6.8-2s.4 3.8 0 5c-.5 1-.8-.3-.8-3zm-37.5-3.5c-1.1-.5-1.6-1.5-1.2-2.3.5-.8 0-3.5-1.3-6a64.9 64.9 0 0 1-5.3-24.6c-.4-6.5.2-10 2.8-14.3 3.8-6.5 4.7-7 3.4-2.1-.8 3-.4 3.4 3.3 2.4 3.2-.8 5.3 0 8.7 3 2.4 2.3 5.8 4.2 7.6 4.2 2.6 0 3 .7 2.1 4.2-.7 2.7-.4 3.8.7 3.1 1-.5 2.4-.6 3.3 0 2 1.2-.9 7.4-3.4 7.4-.9 0-3 1.3-4.8 2.9-3 2.9-3 2.9.4 3.2 1.9.1 5-.5 6.8-1.4 3-1.5 3-1.3-.4 1.7-2.1 1.8-4.5 3-5.3 2.4-.8-.5-1.5-.1-1.5.8s.8 2 1.7 2.6c2.7 1.7-.1 4.4-3.6 3.5-2.2-.6-4.1.8-6.7 4.8-3.8 5.8-4 5.9-7.3 4.5Z"/>
</svg>
