<svg xmlns="http://www.w3.org/2000/svg" viewBox="0 0 93.1 19.3">
  <path fill="#ffffff" d="M.6 19.3H.2L.1 19l-.1-.2q0-1 .7-2.5.6-1.4 1.7-3l2.1-2.8 1.5-2L6.8 7l1-2.6q0-.2.4-.2t.4.6l-.1.5v.2l-.1.2-.1.2v.2l1.5-.6 1.2-.2q.7 0 1 .4v.4q0 .6-.4 1.4l-1 1.8q-.7.9-1.5 1.6l-.8.5L7 12q-.5.3-1.1.4l-.8.2-.7 1.3-.7 1.3q-1.6 3-2.9 4l-.3.1zm5-7.8q1.3-.2 2.6-1 1.4-.8 2.3-2 .9-1.2.8-2.4-.2-.4-.7-.4l-.8.2-1 .6-.9.7-.5.6q-.2.2-.3.7l-.2.3V9l-.4.8-.4.8zM1 17.8v.1q.2 0 .5-.4l.8-1 1-1.6.8-1.6q.9-1.7.7-2l-.9 1-1 1.7-1 1.7-.8 1.6-.1.5zm10-4.3q-.5 0-.4-.6.1-1 .5-1.9l.5-1.2.8-1.4.4-.8.2-.5.4-.8.4-.9 1.6-3.3Q16.2 1 17 .4h.7l.3.3v.5q0 1-1 2.4-.4.8-1.2 1.7l-1.8 2-.5.7-1.2 2q-.4.9-.3 1.6l.2.1.2-.1.4-.3.4-.5.2-.2q0-.2.2-.3l.3-.5.8-1.1q.5-.6 1-.6t.9.6q.4.5.8 1.5l.6 1.2q.3.4.6.4l.6-.3q.3-.3.5-.3.1.2 0 .4-.2.3-.6.5l-.6.4q-.4.2-.5.1-.8-.2-1.2-.7l-.7-1.4-.3-.4q0-.3-.2-.4-.1-.3-.4-.3-.3 0-.6.3l-.6.6-.6.8-.2.4-.2.2-.4.5-.6.9-.4.2q-.2.2-.5.2zm3.1-7.3.4-.3.7-.7.8-1 .6-1q.8-1.3.8-1.7l-.1-.3q-.3-.2-.7.2l-.9 1.1L15 4l-.4.9-.3.9-.2.5zm10.1 6.4H24q-.3-.2-.4-.5-.1-.3 0-.8v-.8l.2-.8-1.3 1.3-.7.7q-.7.7-1.2.7l-.4-.2q-.2-.2-.2-.6 0-.6.3-1.2l.7-1.2.6-1q.8-.9 1.5-1.4.8-.5 1.5-.5l.9.1.8.5-.1.2H26v.1q-.4.3-.8 1l-.6 1.6q-.3.7-.3 1.3 0 .5.2.7h.3q.3 0 1-.4l.3-.2.3-.2.2.1-.2.4-.4.2-.4.3-.8.5-.7.1zM21.4 11q.5 0 2-1.6l.6-.8.6-.8q.4-.7.3-1l-.3-.1q-.3 0-.8.3l-1 .7-.9 1-.5 1q-.3.6-.3 1 0 .3.3.3zm-.4 4.2-.1-.3-.1-.4.1-.2.8-.4.4-.2h.1l.1.1v.3l-.2.8-.1.1-.5.1H21zm6.3-2.4q-.2 0-.2-.3l.1-.6.3-.7.7-1.5.9-1.9q.3-.7.7-1.1.3-.5.5-.5t.2.2l.1.4V7l-.6.7-.6 1q-.5 1-.5 1.5v.2l.6-.3.6-.5 1.5-1.4.5-.4.3-.2.5-.2.5.2.1.7V10l.3.3.2-.2.7-.8 1.4-1.5q.5-.5 1.1-.7h.3l.3.1q.2.2.1.4l-.2 1-.3.8q-.3.6-.3 1 0 .2.2.2l.3.1.2.1.8-.1q.3 0 .1.1 0 .2-.4.4l-.8.4-.6.2q-.7 0-.7-.7l.1-.7.4-1.6q0-.4-.2-.4-.5 0-2 1.8l-.3.4-.4.4-.6.6-.4.1q-.6 0-.6-.3v-1.1l-.1-.9q0-.2-.3-.2-.2 0-1.2.8-1.4 1.1-2.6 2.4-.4.5-.7.5zm20.3 1q-.4 0-.6-.3v-.2l.1-.5v-.3l.2-.3.1-.2.1-.4.1-.6q0-.4-.2-.4l-.3.1-.7.5-.8.5-.8.4-.5.3-.4.2q-.2.2-.5.2t-.8-.4q-.3-.3-.3-.6t.3-.8l.7-.8.3-.4.3-.2q1-1.5 3.3-2.6.6-.3 1.1-.3.6 0 1 .5 0-.3.4-.9l.8-1.3.8-1.3.6-1L53 1.5q.5-.5.8-.5l.4.1.1.4q0 .4-.3 1l-1 1.2v.2q-.2 0-.3.3l-.6.8-.6.9-1.1 1.4-1 1.6-.8 1.6-.5 1.6v1.2q0 .7-.5.7zm-3.6-2 .5-.1q1-.3 1.8-.9l1.9-1.3q0-.4.3-.8l.3-.9q-.3-.6-.8-.6l-.9.2-1 .7-1 1q-.5.4-.9 1l-.5.7-.1.6q0 .4.4.4zm4.7-7h-.3v-.3q0-.2.2-.3h4.9q.4 0 .4.3l-.2.2h-.4l-1.1.1h-1.7zm6.4 8q-.7 0-.7-1t.7-2.9l-1.6 1.9q-.8.8-1.6 1.3-.6.4-1 .4-.6 0-.6-.9l.1-.8.6-1.3L52 8l1-1.2.3-.1q.2 0 .2.2l-.1.2-.5.7-.6 1-.5 1-.2.8q0 .4.4.4l.4-.1q1-.6 1.7-1.4.8-.8 1.5-2.3l.5-.1q.3 0 .5.2.2.1.2.4l-.2.6v.2l-.2.2-.1.3-.1.1-.8 1.5-.2 1q0 .5.4.5t.8-.3l.5-.2q.3 0-.2.4l-.9.6-.7.2zm2.2-4.6q-.5 0-1-.3l-.1-.2q0-.1 0 0h1.2q.2 0 .3-.2.2-.2.2-.5v-.4l-.2-.3V6l.1-.2q.4 0 .6.4l.2.8q0 .5-.4.8-.4.3-.9.3zm-2.5-2.6-.1-.1v-.1l1-1 1-1h.4q.2 0 .3.2v.3l-.9.6-.9.7-.8.4zm3.9 7q-.7 0-1-.4-.3-.4-.3-1 0-1 .8-2 .6-.8 1.3-1.4.8-.7 1.5-1 .7-.5 1.2-.5t.7.5V7q0 .5-.3.5l-.3-.1q-.2-.2-.2-.5-.2-.1-.7.1l-1 .7-1 1-.7.8q-.4.6-.4 1.4l.1.6q.2.2.6.2l.8-.2.6-.3.5-.3 1.8-.9v.3l-.8.6-1.2.8-1.2.5-.8.2zm9.2 1.1-.5-.1q-.2-.2-.2-.5 0-1 .4-2l1-2.3.2-.3v-.2L70 6l1.2-2.2.4-.6 1-1.8 1-1 .6-.3q.2 0 .5.4l-.6 1.2-.8 1.3-1.2 1.7q0 .2-.4.6L71 6.4l-.8 1.3-.6 1-.8 1.8q-.4.9-.4 1.4 0 .5.3.5.6 0 2-1l.1.1-.2.4-.6.5-.8.6-.4.3q-.4.3-.8.3zm4.6-1.2q-1 0-1-.9v-.2l.1-.3q.3-1 1-2 .8-1 1.8-1.7.4-.3 1.2-.3l.9.1.5.4.2.6v.4h.7l.4-.1q.3 0 .1.2L78 9h-1q-.2.8-.8 1.5-.6.7-1.4 1.2-.7.5-1.4.7l-.8.1zM76 8.6h.9v-.3q0-.4-.4-.6l-.5-.1-.8.2-.8.6q.5.2 1.6.2zm-2.5 3q.3 0 .7-.3l1-.7 1-.8.2-.4.3-.4-.7.1-2.5.2q-.6 1-.7 1.6 0 .3.2.5l.5.1zm4.5.8q-.4 0-.4-.4l.1-.6.4-.7.9-1.6.8-1.8q.1-.4.5-.4t.2.5l-.3.7q-.7 1.4-.7 2 0 .2.2.2l.5-.4.2-.2.8-.6 1-.9q.8-.7 1.4-.7.7 0 .5 1.2v1.7q0 .2.4.2l.6-.2.6-.3.6-.4h.1q.2 0 0 .2-1.6 2-2.6 2h-.4l-.3-.5V9q0-.6-.3-.6-.7 0-3.3 2.8l-.6.6q-.4.5-.9.5zm8.4 5q-.5 0-.9-.5t-.4-1.2q0-.5.2-.8l.4-.2q.2 0 .2.2l-.2.4v.3l.2.8q.2.4.6.4h.2q1.2-.5 2.2-2 1-1.5 1.6-3.2.7-1.8 1-3.3h-.1l-.3.1-.3.4-.2.2-.4.5-.7.7-.9.8-.7.7q-.4.3-1 .3h-.3q-.2-.2-.2-.5 0-.4.5-1.3.3-.7 1.1-1.7t1.7-1.7q.6-.5 1.4-.7h.8l.4-.1q.4 0 .5-.3l.2.1.1.3v.5q0 1-.4 2l-.8 2q-.8 2.1-2 3.9-1.4 1.8-3 2.7-.2.2-.6.2zm.8-6.3h.5l.4-.3.4-.4q.2 0 .4-.3l.6-.5.5-.5.7-.8.7-1q.3-.4.3-.7 0-.2-.3-.2t-.7.3l-1 .7-.9.9-.6.7-.5.8-.5.8q-.2.4 0 .5z" />
</svg>
